<svg width="24" height="24" viewBox="0 0 24 24" fill="none" xmlns="http://www.w3.org/2000/svg">
<rect width="24" height="24" fill="#FFF000"/>
<path d="M14.6631 13.4176C14.6631 13.4176 14.6908 13.393 14.7061 13.3807C15.2996 12.8242 14.9798 12.2061 14.7 11.8955C14.6477 11.8433 14.5708 11.7695 14.494 11.7295C14.4202 11.9109 14.208 12.2492 13.756 12.4798C13.2271 12.7166 12.6367 12.8518 12.0186 12.8518C11.4006 12.8518 10.8102 12.7196 10.2813 12.4798C9.82926 12.2584 9.61402 11.9109 9.54329 11.7295C9.46642 11.7695 9.39262 11.8433 9.33727 11.8955C9.05745 12.2061 8.74995 12.8242 9.33112 13.3838C9.34342 13.3961 9.35879 13.4084 9.37417 13.4207C9.37724 13.4238 9.38339 13.4299 9.38954 13.433C9.91844 13.8881 10.7917 14.2356 12.0217 14.2356C13.2517 14.2356 14.125 13.8881 14.6569 13.433C14.6631 13.4299 14.6662 13.4238 14.6723 13.4207" fill="#040000"/>
<path d="M12.0185 5.00505C11.4589 5.00505 10.9331 5.13727 10.4626 5.37097L10.6071 4.31934L9.02353 4.60223L8.56844 7.95393C8.54077 8.13228 8.52539 8.3137 8.52539 8.49819C8.52539 10.4262 10.0875 11.9913 12.0185 11.9913C13.9496 11.9913 15.5117 10.4293 15.5117 8.49819C15.5117 6.56713 13.9496 5.00505 12.0185 5.00505ZM12.0185 10.4446C10.9423 10.4446 10.0721 9.57443 10.0721 8.49819C10.0721 7.42196 10.9423 6.55175 12.0185 6.55175C13.0948 6.55175 13.965 7.42196 13.965 8.49819C13.965 9.57443 13.0948 10.4446 12.0185 10.4446Z" fill="#040000"/>
<path d="M13.8205 16.0479C12.8949 16.0479 12.2246 16.7397 12.2246 17.693C12.2246 18.5047 12.7812 19.3258 13.842 19.3258C14.6969 19.3258 15.2165 18.7723 15.3549 18.2249L15.3641 18.1911H14.5001L14.4908 18.2034C14.374 18.3971 14.1311 18.5047 13.8082 18.5047C13.39 18.5047 13.1225 18.2987 13.0671 17.9359H15.398V17.9143C15.4103 17.8405 15.4164 17.7637 15.4164 17.693C15.4164 16.7397 14.7461 16.0479 13.8205 16.0479ZM14.4939 17.2778H13.1256C13.2086 16.9888 13.4546 16.8197 13.7898 16.8197C14.1588 16.8197 14.4232 16.9949 14.4939 17.2778Z" fill="#040000"/>
<path d="M17.7533 16.2169V18.0004C17.7533 18.2802 17.4827 18.477 17.0953 18.477C16.7078 18.477 16.4711 18.228 16.4711 18.0004V16.0724L15.647 16.2169V18.1388C15.647 18.5416 15.9514 19.3073 17.0953 19.3073C18.2392 19.3073 18.5682 18.6031 18.5805 18.1665V16.0693L17.7533 16.2139V16.2169Z" fill="#040000"/>
<path d="M4.01757 16.076C3.82692 16.076 3.63935 16.1098 3.46101 16.1744L3.59938 15.1904L2.71994 15.3473L2.42167 17.4351L2.40937 17.5151C2.40322 17.5766 2.40015 17.6319 2.40015 17.6904C2.40015 18.6252 3.07971 19.3047 4.0145 19.3047C4.94928 19.3047 5.62885 18.6098 5.62885 17.6904C5.62885 16.771 4.93391 16.076 4.0145 16.076M4.77709 17.6904C4.77709 18.1116 4.43577 18.453 4.0145 18.453C3.59323 18.453 3.24883 18.1116 3.24883 17.6904C3.24883 17.2691 3.59015 16.9278 4.0145 16.9278C4.43884 16.9278 4.77709 17.2691 4.77709 17.6904Z" fill="#040000"/>
<path d="M11.1821 17.3636C11.0038 17.3328 10.8531 17.3052 10.7147 17.2806C10.5671 17.256 10.441 17.2345 10.3273 17.2129C10.1397 17.1791 10.112 17.093 10.112 17.0161C10.112 16.9116 10.1858 16.8562 10.3334 16.8562H11.8217L11.9293 16.0752H10.3058C9.95828 16.0752 9.69076 16.1705 9.50934 16.355C9.34329 16.5241 9.26027 16.7671 9.26949 17.0592C9.28179 17.5512 9.60466 17.8679 10.1797 17.9478C10.5456 18.0001 10.6378 18.0155 10.7793 18.0401C10.8377 18.0493 10.9054 18.0616 11.0007 18.077C11.2098 18.1108 11.2498 18.1815 11.2498 18.3015C11.2498 18.3753 11.2221 18.4767 10.973 18.4767H9.47551L9.35559 19.2977H11.0007C11.6495 19.2977 12.0708 18.9287 12.0708 18.3537C12.0708 17.7787 11.8063 17.4743 11.1821 17.3636Z" fill="#040000"/>
<path d="M20.7114 17.3636C20.5331 17.3328 20.3824 17.3052 20.244 17.2806C20.0964 17.256 19.9703 17.2345 19.8566 17.2129C19.669 17.1791 19.6413 17.093 19.6413 17.0161C19.6413 16.9116 19.7151 16.8562 19.8627 16.8562H21.351L21.4586 16.0752H19.835C19.4876 16.0752 19.2201 16.1705 19.0386 16.355C18.8726 16.5241 18.7896 16.7671 18.7988 17.0592C18.8111 17.5512 19.134 17.8679 19.709 17.9478C20.0749 18.0001 20.1671 18.0155 20.3086 18.0401C20.367 18.0493 20.4347 18.0616 20.53 18.077C20.7391 18.1108 20.7791 18.1815 20.7791 18.3015C20.7791 18.3753 20.7514 18.4767 20.5023 18.4767H19.0048L18.8849 19.2977H20.53C21.1788 19.2977 21.6001 18.9287 21.6001 18.3537C21.6001 17.7787 21.3356 17.4743 20.7114 17.3636Z" fill="#040000"/>
<path d="M7.46469 16.0752C6.57603 16.0752 5.85034 16.7978 5.85034 17.6895C5.85034 18.6243 6.52991 19.3039 7.46469 19.3039C7.74144 19.3039 8.01511 19.2332 8.26725 19.0979V19.3008H9.07597V17.6619C9.06059 16.7855 8.34105 16.0783 7.46162 16.0783M8.25188 17.6926C8.25188 18.1293 7.89826 18.4829 7.46162 18.4829C7.02497 18.4829 6.67135 18.1446 6.67135 17.6926C6.67135 17.2406 7.02497 16.9024 7.46162 16.9024C7.89826 16.9024 8.25188 17.256 8.25188 17.6926Z" fill="#040000"/>
</svg>
